<svg xmlns="http://www.w3.org/2000/svg" version="1.1" xmlns:xlink="http://www.w3.org/1999/xlink" xmlns:svgjs="http://svgjs.dev/svgjs" width="1000" height="625" viewBox="0 0 1000 625"><g transform="matrix(1,0,0,1,0,0)"><svg viewBox="0 0 512 320" data-background-color="#ffffff" preserveAspectRatio="xMidYMid meet" height="625" width="1000" xmlns="http://www.w3.org/2000/svg" xmlns:xlink="http://www.w3.org/1999/xlink"><defs></defs><g id="tight-bounds" transform="matrix(1,0,0,1,0,0)"><svg viewBox="0 0 512 320" height="320" width="512"><g><svg></svg></g><g><svg viewBox="0 0 512 320" height="320" width="512"><g><path d="M96 160c0-88.366 71.634-160 160-160 88.366 0 160 71.634 160 160 0 88.366-71.634 160-160 160-88.366 0-160-71.634-160-160z" fill="#4c4e4a" data-fill-palette-color="tertiary"></path></g><g transform="matrix(1,0,0,1,153.6,121.67402245451026)"><svg viewBox="0 0 204.8 76.65195509097948" height="76.65195509097948" width="204.8"><g><svg viewBox="0 0 204.8 76.65195509097948" height="76.65195509097948" width="204.8"><g><svg viewBox="0 0 204.8 76.65195509097948" height="76.65195509097948" width="204.8"><g><svg viewBox="0 0 204.8 76.65195509097948" height="76.65195509097948" width="204.8"><g><svg viewBox="0 0 204.8 76.65195509097948" height="76.65195509097948" width="204.8"><path d="M204.321 16.44C203.358 8.484 200.614 6.272 200.614 6.272 192.189-1.923 181.675-0.157 172.23 1.021 155.554 1.069 138.946 2.819 122.308 3.758 87.387 3.901 52.168 1.546 17.42 7.354 14.156 9.136-3.386 7.704 0.581 17.459 1.62 21.517 5.414 26.02 5.298 29.744 5.818 30.396 6.54 28.9 6.848 29.839 7.927 32.369 9.689 31.176 11.133 32.672 9.121 36.666 10.565 39.991 11.942 43.476 9.515 44.383 6.406 43.954 5.009 46.961 4.865 49.141 4.085 48.728 3.228 48.632 2.602 48.569 1.341 48.807 1.553 49.491 2.275 51.831-0.825 53.183 1.12 55.475-0.219 57.957 2.044 60.105 1.736 62.795 1.697 63.336 1.909 63.797 2.246 63.924 3.739 64.609 1.563 65.945 1.794 67.393 17.102 77.291 33.711 70.449 49.395 75 53.468 71.817 50.406 76.13 52.033 75.461 53.304 74.682 54.228 77.912 55.663 76.082 55.884 75.557 55.547 74.316 56.337 74.554 56.751 74.682 57.117 74.65 57.174 73.918 57.261 72.82 56.5 73.504 56.298 72.931 58.484 70.035 57.945 76.925 59.995 76.639 59.899 75.795 59.302 74.586 60.525 74.745 61.738 73.536 61.777 72.533 62.855 75.254 62.894 75.843 63.086 76.257 63.394 76.543 66.764 73.584 70.115 77.594 73.648 76.257 75.814 74.793 77.894 77.053 80.089 76.496 80.86 76.05 81.639 75.254 82.381 76.591 91.46 76.878 101.136 75.684 109.744 76.639 132.745 74.857 157.326 77.371 181.579 75.016 187.298 74.109 193.239 72.82 198.813 71.785 198.813 71.785 203.329 68.953 203.329 56.223S204.292 45.084 204.436 34.947C204.58 24.811 205.254 24.397 204.292 16.44Z" opacity="1" fill="#4c4e4a" data-fill-palette-color="tertiary"></path><g transform="matrix(1,0,0,1,28.876800000000003,16.977777777777778)"><svg width="147.0464" viewBox="1.75 -37 129.14 37.5" height="42.69639953542393" data-palette-color="#ffffff"><path d="M14.9-27.25L14.9-27.25Q17.75-27.25 19.88-26.65 22-26.05 23.18-24.98 24.35-23.9 24.35-22.4L24.35-22.4Q24.35-21.4 23.75-20.53 23.15-19.65 22-19.65L22-19.65Q21.2-19.65 20.68-19.88 20.15-20.1 19.75-20.45 19.35-20.8 18.8-21.1L18.8-21.1Q18.3-21.4 17.28-21.58 16.25-21.75 15.75-21.75L15.75-21.75Q13.2-21.75 11.43-20.65 9.65-19.55 8.7-17.68 7.75-15.8 7.75-13.35L7.75-13.35Q7.75-10.95 8.72-9.08 9.7-7.2 11.43-6.1 13.15-5 15.4-5L15.4-5Q16.65-5 17.55-5.15 18.45-5.3 19.05-5.6L19.05-5.6Q19.75-6 20.3-6.45 20.85-6.9 21.95-6.9L21.95-6.9Q23.25-6.9 23.95-6.08 24.65-5.25 24.65-4.05L24.65-4.05Q24.65-2.8 23.25-1.78 21.85-0.75 19.58-0.13 17.3 0.5 14.65 0.5L14.65 0.5Q10.7 0.5 7.8-1.33 4.9-3.15 3.33-6.3 1.75-9.45 1.75-13.35L1.75-13.35Q1.75-17.45 3.43-20.58 5.1-23.7 8.08-25.48 11.05-27.25 14.9-27.25ZM50.65-27.25L50.65-27.25Q51.95-27.25 52.8-26.4 53.65-25.55 53.65-24.2L53.65-24.2 53.65-3.05Q53.65-1.75 52.8-0.88 51.95 0 50.65 0L50.65 0Q49.35 0 48.5-0.88 47.65-1.75 47.65-3.05L47.65-3.05 47.65-5.5 48.75-5.05Q48.75-4.4 48.05-3.48 47.35-2.55 46.15-1.65 44.95-0.75 43.32-0.13 41.7 0.5 39.8 0.5L39.8 0.5Q36.35 0.5 33.55-1.28 30.75-3.05 29.12-6.18 27.5-9.3 27.5-13.35L27.5-13.35Q27.5-17.45 29.12-20.58 30.75-23.7 33.5-25.48 36.25-27.25 39.6-27.25L39.6-27.25Q41.75-27.25 43.55-26.6 45.35-25.95 46.67-24.95 48-23.95 48.72-22.93 49.45-21.9 49.45-21.2L49.45-21.2 47.65-20.55 47.65-24.2Q47.65-25.5 48.5-26.38 49.35-27.25 50.65-27.25ZM40.55-5L40.55-5Q42.75-5 44.4-6.1 46.05-7.2 46.97-9.1 47.9-11 47.9-13.35L47.9-13.35Q47.9-15.75 46.97-17.65 46.05-19.55 44.4-20.65 42.75-21.75 40.55-21.75L40.55-21.75Q38.4-21.75 36.75-20.65 35.1-19.55 34.17-17.65 33.25-15.75 33.25-13.35L33.25-13.35Q33.25-11 34.17-9.1 35.1-7.2 36.75-6.1 38.4-5 40.55-5ZM74.2-27.25L74.2-27.25Q78.2-27.25 80.09-25.33 82-23.4 82.59-20.35L82.59-20.35 81.75-20.8 82.15-21.6Q82.75-22.75 84-24.08 85.25-25.4 87.02-26.33 88.8-27.25 91-27.25L91-27.25Q94.59-27.25 96.47-25.7 98.34-24.15 99.05-21.58 99.75-19 99.75-15.85L99.75-15.85 99.75-3.05Q99.75-1.75 98.9-0.88 98.05 0 96.75 0L96.75 0Q95.45 0 94.59-0.88 93.75-1.75 93.75-3.05L93.75-3.05 93.75-15.85Q93.75-17.5 93.34-18.82 92.95-20.15 91.9-20.95 90.84-21.75 88.9-21.75L88.9-21.75Q87-21.75 85.65-20.95 84.3-20.15 83.62-18.82 82.95-17.5 82.95-15.85L82.95-15.85 82.95-3.05Q82.95-1.75 82.09-0.88 81.25 0 79.95 0L79.95 0Q78.65 0 77.8-0.88 76.95-1.75 76.95-3.05L76.95-3.05 76.95-15.85Q76.95-17.5 76.55-18.82 76.15-20.15 75.09-20.95 74.05-21.75 72.09-21.75L72.09-21.75Q70.2-21.75 68.84-20.95 67.5-20.15 66.82-18.82 66.15-17.5 66.15-15.85L66.15-15.85 66.15-3.05Q66.15-1.75 65.3-0.88 64.45 0 63.15 0L63.15 0Q61.85 0 61-0.88 60.15-1.75 60.15-3.05L60.15-3.05 60.15-23.7Q60.15-25 61-25.88 61.85-26.75 63.15-26.75L63.15-26.75Q64.45-26.75 65.3-25.88 66.15-25 66.15-23.7L66.15-23.7 66.15-21.55 65.4-21.7Q65.84-22.55 66.65-23.53 67.45-24.5 68.59-25.35 69.75-26.2 71.15-26.73 72.55-27.25 74.2-27.25ZM127.89-37L127.89-37Q129.19-37 130.04-36.15 130.89-35.3 130.89-33.95L130.89-33.95 130.89-3.05Q130.89-1.75 130.04-0.88 129.19 0 127.89 0L127.89 0Q126.59 0 125.74-0.88 124.89-1.75 124.89-3.05L124.89-3.05 124.89-5.5 125.99-5.05Q125.99-4.4 125.29-3.48 124.59-2.55 123.39-1.65 122.19-0.75 120.57-0.13 118.94 0.5 117.04 0.5L117.04 0.5Q113.59 0.5 110.79-1.28 107.99-3.05 106.37-6.18 104.74-9.3 104.74-13.35L104.74-13.35Q104.74-17.45 106.37-20.58 107.99-23.7 110.74-25.48 113.49-27.25 116.84-27.25L116.84-27.25Q118.99-27.25 120.79-26.6 122.59-25.95 123.92-24.95 125.24-23.95 125.97-22.93 126.69-21.9 126.69-21.2L126.69-21.2 124.89-20.55 124.89-33.95Q124.89-35.25 125.74-36.13 126.59-37 127.89-37ZM117.79-5L117.79-5Q119.99-5 121.64-6.1 123.29-7.2 124.22-9.1 125.14-11 125.14-13.35L125.14-13.35Q125.14-15.75 124.22-17.65 123.29-19.55 121.64-20.65 119.99-21.75 117.79-21.75L117.79-21.75Q115.64-21.75 113.99-20.65 112.34-19.55 111.42-17.65 110.49-15.75 110.49-13.35L110.49-13.35Q110.49-11 111.42-9.1 112.34-7.2 113.99-6.1 115.64-5 117.79-5Z" opacity="1" transform="matrix(1,0,0,1,0,0)" fill="#ffffff" class="undefined-text-0" data-fill-palette-color="quaternary" id="text-0"></path></svg></g></svg></g></svg></g></svg></g><g></g></svg></g></svg></g></svg></g></svg><rect width="512" height="320" fill="none" stroke="none" visibility="hidden"></rect></g></svg></g></svg>